<svg width="20" height="13" viewBox="0 0 20 13" fill="none" xmlns="http://www.w3.org/2000/svg">
<path d="M0.5 0.5L3.41943 3.33997L0.5 6.27433V0.5Z" fill="#605E5C"/>
<path d="M3.65994 3.57434L6.66095 6.49451L3.65994 9.48754V3.57434Z" fill="#C1C1C1"/>
<path d="M3.55526 3.47485L0.57222 6.48622L3.55526 9.3862V3.47485Z" fill="#FFFCFD"/>
<path d="M9.9406 3.59473L6.97853 6.58501L9.9406 9.52214V3.59473Z" fill="#A8A8A8"/>
<path d="M6.75317 6.57214L3.76413 9.58992L6.75317 12.5V6.57214Z" fill="#DEDEDD"/>
<path d="M6.85422 6.68188L9.81629 9.56082L6.85422 12.4979V6.68188Z" fill="#6C6A68"/>
<path d="M19.5 0.5L16.5803 3.33997L19.5 6.27433V0.5Z" fill="#605E5C"/>
<path d="M16.3397 3.57434L13.3387 6.49451L16.3397 9.48754V3.57434Z" fill="#C1C1C1"/>
<path d="M16.4441 3.47485L19.4275 6.48622L16.4441 9.3862V3.47485Z" fill="#FFFCFD"/>
<path d="M10.0591 3.59473L13.0212 6.58501L10.0591 9.52214V3.59473Z" fill="#A8A8A8"/>
<path d="M13.2463 6.57214L16.2357 9.58995L13.2463 12.5V6.57214Z" fill="#DEDEDE"/>
<path d="M13.1456 6.68188L10.1835 9.56082L13.1456 12.4979V6.68188Z" fill="#6C6A68"/>
</svg>
